# xmcd
# 
# Track frame offsets:
#     150
#     23791
#     37601
#     58151
#     73315
#     89522
# 
# Disc length: 1475
# 
# Revision: 0
# Processed by: cddbd v1.5.2PL0 Copyright (c) Steve Scherf et al.
# Submitted via: fre:ac v1.0.27
# 
DISCID=4b05c106
DTITLE=The Washers - Winter Sampler
DYEAR=2012
DGENRE=Country
TTITLE0=Two Left Feet
TTITLE1=Everybody but Me
TTITLE2=The Real Thing
TTITLE3=Here in Texas
TTITLE4=Bag of Bones
TTITLE5=Novus Ordo Seclorum The Broken Promise Land
EXTD=
EXTT0=
EXTT1=
EXTT2=
EXTT3=
EXTT4=
EXTT5=
PLAYORDER=
